<svg width="37" height="20" viewBox="0 0 37 20" fill="none" xmlns="http://www.w3.org/2000/svg">
<path d="M10 12.5C11.3807 12.5 12.5 11.3807 12.5 10C12.5 8.61929 11.3807 7.5 10 7.5C8.61929 7.5 7.5 8.61929 7.5 10C7.5 11.3807 8.61929 12.5 10 12.5Z" stroke="#585872" stroke-width="1.66667" stroke-linecap="round" stroke-linejoin="round"/>
<path d="M16.1667 12.4999C16.0557 12.7513 16.0227 13.0301 16.0717 13.3004C16.1207 13.5707 16.2496 13.8202 16.4417 14.0166L16.4917 14.0666C16.6466 14.2214 16.7696 14.4052 16.8534 14.6075C16.9373 14.8098 16.9805 15.0267 16.9805 15.2458C16.9805 15.4648 16.9373 15.6817 16.8534 15.884C16.7696 16.0863 16.6466 16.2701 16.4917 16.4249C16.3369 16.5799 16.1531 16.7028 15.9507 16.7867C15.7484 16.8706 15.5315 16.9137 15.3125 16.9137C15.0935 16.9137 14.8766 16.8706 14.6743 16.7867C14.4719 16.7028 14.2881 16.5799 14.1333 16.4249L14.0833 16.3749C13.8869 16.1828 13.6375 16.0539 13.3672 16.0049C13.0968 15.9559 12.818 15.989 12.5667 16.0999C12.3202 16.2056 12.11 16.381 11.9619 16.6045C11.8139 16.8281 11.7344 17.0901 11.7333 17.3583V17.4999C11.7333 17.9419 11.5577 18.3659 11.2452 18.6784C10.9326 18.991 10.5087 19.1666 10.0667 19.1666C9.62465 19.1666 9.20073 18.991 8.88817 18.6784C8.5756 18.3659 8.40001 17.9419 8.40001 17.4999V17.4249C8.39356 17.1491 8.30427 16.8816 8.14377 16.6572C7.98326 16.4328 7.75896 16.2618 7.50001 16.1666C7.24866 16.0557 6.96985 16.0226 6.69952 16.0716C6.42919 16.1206 6.17974 16.2495 5.98334 16.4416L5.93334 16.4916C5.77855 16.6465 5.59474 16.7695 5.39241 16.8533C5.19008 16.9372 4.9732 16.9804 4.75418 16.9804C4.53515 16.9804 4.31827 16.9372 4.11594 16.8533C3.91361 16.7695 3.7298 16.6465 3.57501 16.4916C3.42005 16.3368 3.29712 16.153 3.21324 15.9507C3.12937 15.7483 3.0862 15.5314 3.0862 15.3124C3.0862 15.0934 3.12937 14.8765 3.21324 14.6742C3.29712 14.4719 3.42005 14.288 3.57501 14.1332L3.62501 14.0833C3.81712 13.8869 3.946 13.6374 3.99501 13.3671C4.04403 13.0967 4.01094 12.8179 3.90001 12.5666C3.79437 12.3201 3.61897 12.1099 3.3954 11.9618C3.17182 11.8138 2.90983 11.7343 2.64168 11.7333H2.50001C2.05798 11.7333 1.63406 11.5577 1.3215 11.2451C1.00894 10.9325 0.833344 10.5086 0.833344 10.0666C0.833344 9.62456 1.00894 9.20063 1.3215 8.88807C1.63406 8.57551 2.05798 8.39992 2.50001 8.39992H2.57501C2.85084 8.39347 3.11835 8.30418 3.34276 8.14368C3.56717 7.98317 3.73811 7.75886 3.83334 7.49992C3.94427 7.24857 3.97736 6.96976 3.92835 6.69943C3.87933 6.4291 3.75046 6.17965 3.55834 5.98325L3.50834 5.93325C3.35338 5.77846 3.23045 5.59465 3.14658 5.39232C3.0627 5.18999 3.01953 4.97311 3.01953 4.75408C3.01953 4.53506 3.0627 4.31818 3.14658 4.11585C3.23045 3.91352 3.35338 3.72971 3.50834 3.57492C3.66313 3.41996 3.84695 3.29703 4.04928 3.21315C4.25161 3.12928 4.46848 3.08611 4.68751 3.08611C4.90654 3.08611 5.12341 3.12928 5.32574 3.21315C5.52807 3.29703 5.71189 3.41996 5.86668 3.57492L5.91668 3.62492C6.11308 3.81703 6.36252 3.94591 6.63285 3.99492C6.90318 4.04394 7.182 4.01085 7.43334 3.89992H7.50001C7.74648 3.79428 7.95669 3.61888 8.10475 3.39531C8.25282 3.17173 8.33227 2.90974 8.33334 2.64159V2.49992C8.33334 2.05789 8.50894 1.63397 8.8215 1.32141C9.13406 1.00885 9.55798 0.833252 10 0.833252C10.442 0.833252 10.866 1.00885 11.1785 1.32141C11.4911 1.63397 11.6667 2.05789 11.6667 2.49992V2.57492C11.6677 2.84307 11.7472 3.10506 11.8953 3.32864C12.0433 3.55221 12.2535 3.72762 12.5 3.83325C12.7514 3.94418 13.0302 3.97727 13.3005 3.92826C13.5708 3.87924 13.8203 3.75037 14.0167 3.55825L14.0667 3.50825C14.2215 3.35329 14.4053 3.23036 14.6076 3.14649C14.8099 3.06261 15.0268 3.01944 15.2458 3.01944C15.4649 3.01944 15.6817 3.06261 15.8841 3.14649C16.0864 3.23036 16.2702 3.35329 16.425 3.50825C16.58 3.66304 16.7029 3.84685 16.7868 4.04918C16.8706 4.25151 16.9138 4.46839 16.9138 4.68742C16.9138 4.90644 16.8706 5.12332 16.7868 5.32565C16.7029 5.52798 16.58 5.7118 16.425 5.86658L16.375 5.91658C16.1829 6.11298 16.054 6.36243 16.005 6.63276C15.956 6.90309 15.9891 7.1819 16.1 7.43325V7.49992C16.2056 7.74639 16.381 7.9566 16.6046 8.10466C16.8282 8.25272 17.0902 8.33218 17.3583 8.33325H17.5C17.942 8.33325 18.366 8.50885 18.6785 8.82141C18.9911 9.13397 19.1667 9.55789 19.1667 9.99992C19.1667 10.4419 18.9911 10.8659 18.6785 11.1784C18.366 11.491 17.942 11.6666 17.5 11.6666H17.425C17.1569 11.6677 16.8949 11.7471 16.6713 11.8952C16.4477 12.0432 16.2723 12.2534 16.1667 12.4999V12.4999Z" stroke="#585872" stroke-width="1.66667" stroke-linecap="round" stroke-linejoin="round"/>
<g clip-path="url(#clip0_1326:9009)">
<path d="M29 11.5C30.1046 11.5 31 10.6046 31 9.5C31 8.39543 30.1046 7.5 29 7.5C27.8954 7.5 27 8.39543 27 9.5C27 10.6046 27.8954 11.5 29 11.5Z" stroke="#585872" stroke-width="1.66667" stroke-linecap="round" stroke-linejoin="round"/>
<path d="M33.9333 11.5001C33.8446 11.7012 33.8181 11.9242 33.8573 12.1405C33.8965 12.3567 33.9996 12.5563 34.1533 12.7134L34.1933 12.7534C34.3173 12.8772 34.4156 13.0243 34.4827 13.1862C34.5498 13.348 34.5844 13.5215 34.5844 13.6967C34.5844 13.872 34.5498 14.0455 34.4827 14.2073C34.4156 14.3692 34.3173 14.5162 34.1933 14.6401C34.0695 14.764 33.9224 14.8624 33.7606 14.9295C33.5987 14.9966 33.4252 15.0311 33.25 15.0311C33.0748 15.0311 32.9013 14.9966 32.7394 14.9295C32.5775 14.8624 32.4305 14.764 32.3067 14.6401L32.2667 14.6001C32.1095 14.4464 31.91 14.3433 31.6937 14.3041C31.4775 14.2649 31.2544 14.2913 31.0533 14.3801C30.8561 14.4646 30.688 14.6049 30.5695 14.7838C30.4511 14.9626 30.3875 15.1722 30.3867 15.3867V15.5001C30.3867 15.8537 30.2462 16.1928 29.9961 16.4429C29.7461 16.6929 29.4069 16.8334 29.0533 16.8334C28.6997 16.8334 28.3606 16.6929 28.1105 16.4429C27.8605 16.1928 27.72 15.8537 27.72 15.5001V15.4401C27.7148 15.2194 27.6434 15.0054 27.515 14.8259C27.3866 14.6464 27.2071 14.5096 27 14.4334C26.7989 14.3447 26.5759 14.3182 26.3596 14.3574C26.1433 14.3966 25.9438 14.4997 25.7867 14.6534L25.7467 14.6934C25.6228 14.8174 25.4758 14.9157 25.3139 14.9828C25.152 15.0499 24.9785 15.0845 24.8033 15.0845C24.6281 15.0845 24.4546 15.0499 24.2927 14.9828C24.1309 14.9157 23.9838 14.8174 23.86 14.6934C23.736 14.5696 23.6377 14.4225 23.5706 14.2607C23.5035 14.0988 23.4689 13.9253 23.4689 13.7501C23.4689 13.5749 23.5035 13.4014 23.5706 13.2395C23.6377 13.0776 23.736 12.9306 23.86 12.8067L23.9 12.7667C24.0537 12.6096 24.1568 12.4101 24.196 12.1938C24.2352 11.9775 24.2087 11.7545 24.12 11.5534C24.0355 11.3562 23.8952 11.1881 23.7163 11.0696C23.5374 10.9512 23.3278 10.8876 23.1133 10.8867H23C22.6464 10.8867 22.3072 10.7463 22.0572 10.4962C21.8071 10.2462 21.6667 9.90704 21.6667 9.55341C21.6667 9.19979 21.8071 8.86065 22.0572 8.61061C22.3072 8.36056 22.6464 8.22008 23 8.22008H23.06C23.2807 8.21492 23.4947 8.14349 23.6742 8.01509C23.8537 7.88668 23.9905 7.70724 24.0667 7.50008C24.1554 7.299 24.1819 7.07595 24.1427 6.85969C24.1034 6.64343 24.0003 6.44387 23.8467 6.28675L23.8067 6.24675C23.6827 6.12292 23.5843 5.97587 23.5172 5.814C23.4501 5.65214 23.4156 5.47864 23.4156 5.30341C23.4156 5.12819 23.4501 4.95469 23.5172 4.79283C23.5843 4.63096 23.6827 4.48391 23.8067 4.36008C23.9305 4.23611 24.0775 4.13777 24.2394 4.07067C24.4013 4.00357 24.5748 3.96903 24.75 3.96903C24.9252 3.96903 25.0987 4.00357 25.2606 4.07067C25.4224 4.13777 25.5695 4.23611 25.6933 4.36008L25.7333 4.40008C25.8904 4.55377 26.09 4.65687 26.3063 4.69608C26.5225 4.7353 26.7456 4.70882 26.9467 4.62008H27C27.1972 4.53557 27.3653 4.39525 27.4838 4.21639C27.6022 4.03753 27.6658 3.82794 27.6667 3.61341V3.50008C27.6667 3.14646 27.8071 2.80732 28.0572 2.55727C28.3072 2.30722 28.6464 2.16675 29 2.16675C29.3536 2.16675 29.6927 2.30722 29.9428 2.55727C30.1928 2.80732 30.3333 3.14646 30.3333 3.50008V3.56008C30.3342 3.77461 30.3977 3.9842 30.5162 4.16306C30.6346 4.34192 30.8028 4.48224 31 4.56675C31.2011 4.65549 31.4241 4.68196 31.6404 4.64275C31.8566 4.60354 32.0562 4.50044 32.2133 4.34675L32.2533 4.30675C32.3772 4.18278 32.5242 4.08443 32.6861 4.01733C32.8479 3.95024 33.0214 3.9157 33.1967 3.9157C33.3719 3.9157 33.5454 3.95024 33.7072 4.01733C33.8691 4.08443 34.0162 4.18278 34.14 4.30675C34.264 4.43058 34.3623 4.57763 34.4294 4.73949C34.4965 4.90136 34.531 5.07486 34.531 5.25008C34.531 5.4253 34.4965 5.5988 34.4294 5.76067C34.3623 5.92253 34.264 6.06958 34.14 6.19341L34.1 6.23341C33.9463 6.39053 33.8432 6.59009 33.804 6.80636C33.7648 7.02262 33.7912 7.24567 33.88 7.44675V7.50008C33.9645 7.69726 34.1048 7.86543 34.2837 7.98388C34.4625 8.10233 34.6721 8.16589 34.8867 8.16675H35C35.3536 8.16675 35.6927 8.30722 35.9428 8.55727C36.1928 8.80732 36.3333 9.14646 36.3333 9.50008C36.3333 9.8537 36.1928 10.1928 35.9428 10.4429C35.6927 10.6929 35.3536 10.8334 35 10.8334H34.94C34.7255 10.8343 34.5159 10.8978 34.337 11.0163C34.1582 11.1347 34.0178 11.3029 33.9333 11.5001V11.5001Z" stroke="#585872" stroke-width="1.66667" stroke-linecap="round" stroke-linejoin="round"/>
</g>
<defs>
<clipPath id="clip0_1326:9009">
<rect width="16" height="16" fill="white" transform="translate(21 1.5)"/>
</clipPath>
</defs>
</svg>
