<svg width="44" height="44" viewBox="0 0 44 44" fill="none" xmlns="http://www.w3.org/2000/svg">
<path d="M16 19V12H28V19" stroke="#585872" stroke-width="2" stroke-linecap="round" stroke-linejoin="round"/>
<path d="M16 28H14C13.4696 28 12.9609 27.7893 12.5858 27.4142C12.2107 27.0391 12 26.5304 12 26V21C12 20.4696 12.2107 19.9609 12.5858 19.5858C12.9609 19.2107 13.4696 19 14 19H30C30.5304 19 31.0391 19.2107 31.4142 19.5858C31.7893 19.9609 32 20.4696 32 21V26C32 26.5304 31.7893 27.0391 31.4142 27.4142C31.0391 27.7893 30.5304 28 30 28H28" stroke="#585872" stroke-width="2" stroke-linecap="round" stroke-linejoin="round"/>
<path d="M28 24H16V32H28V24Z" stroke="#585872" stroke-width="2" stroke-linecap="round" stroke-linejoin="round"/>
</svg>
